{
  "source": "C:\\Users\\Peter\\Desktop\\stuff\\MIUN\\quantitative_research\\video_compression\\videos\\BVI-HD\\BVI-HD_CDVL_videos\\ORIG\\Surfers_1920x1080_30fps.mp4",
  "output": "C:\\Users\\Peter\\Desktop\\stuff\\MIUN\\quantitative_research\\video_compression\\compressed_videos\\BVI-HD\\vp9\\3\\Surfers_1920x1080_30fps_vp9.webm",
  "codec": "vp9",
  "ok": "Input #0, mov,mp4,m4a,3gp,3g2,mj2, from 'C:\\Users\\Peter\\Desktop\\stuff\\MIUN\\quantitative_research\\video_compression\\videos\\BVI-HD\\BVI-HD_CDVL_videos\\ORIG\\Surfers_1920x1080_30fps.mp4':\n  Metadata:\n    major_brand     : isom\n    minor_version   : 512\n    compatible_brands: isomiso2avc1mp41\n    encoder         : Lavf54.28.101\n  Duration: 00:00:05.00, start: 0.000000, bitrate: 232762 kb/s\n  Stream #0:0[0x1](und): Video: h264 (High 4:4:4 Predictive) (avc1 / 0x31637661), yuv420p(progressive), 1920x1080, 232759 kb/s, 30 fps, 30 tbr, 30 tbn (default)\n    Metadata:\n      handler_name    : VideoHandler\n      vendor_id       : [0][0][0][0]\n[out#0/webm @ 000001d1f9911280] Codec AVOption b:a (set bitrate (in bits/s)) has not been used for any stream. The most likely reason is either wrong type (e.g. a video option with no video streams) or that it is a private option of some decoder which was not actually used for any stream.\nStream mapping:\n  Stream #0:0 -> #0:0 (h264 (native) -> vp9 (libvpx-vp9))\nPress [q] to stop, [?] for help\n[libvpx-vp9 @ 000001d1fb6f02c0] v1.15.2-100-g40561f514\nOutput #0, webm, to 'C:\\Users\\Peter\\Desktop\\stuff\\MIUN\\quantitative_research\\video_compression\\compressed_videos\\BVI-HD\\vp9\\3\\Surfers_1920x1080_30fps_vp9.webm':\n  Metadata:\n    major_brand     : isom\n    minor_version   : 512\n    compatible_brands: isomiso2avc1mp41\n    encoder         : Lavf62.3.100\n  Stream #0:0(und): Video: vp9, yuv420p(tv, progressive), 1920x1080, q=2-31, 3000 kb/s, 30 fps, 1k tbn (default)\n    Metadata:\n      encoder         : Lavc62.11.100 libvpx-vp9\n      handler_name    : VideoHandler\n      vendor_id       : [0][0][0][0]\n    Side data:\n      cpb: bitrate max/min/avg: 0/0/0 buffer size: 3000000 vbv_delay: N/A\nframe=    0 fps=0.0 q=0.0 size=       0KiB time=N/A bitrate=N/A speed=N/A elapsed=0:00:00.52    \nframe=    5 fps=4.5 q=56.0 size=       1KiB time=00:00:00.16 bitrate=  30.4kbits/s speed=0.149x elapsed=0:00:01.12    \nframe=   10 fps=6.1 q=48.0 size=       1KiB time=00:00:00.33 bitrate=  15.2kbits/s speed=0.203x elapsed=0:00:01.64    \nframe=   15 fps=7.0 q=50.0 size=       1KiB time=00:00:00.50 bitrate=  10.1kbits/s speed=0.232x elapsed=0:00:02.15    \nframe=   20 fps=7.4 q=52.0 size=       1KiB time=00:00:00.66 bitrate=   7.6kbits/s speed=0.248x elapsed=0:00:02.69    \nframe=   24 fps=7.4 q=50.0 size=       1KiB time=00:00:00.80 bitrate=   6.3kbits/s speed=0.248x elapsed=0:00:03.23    \nframe=   29 fps=7.7 q=53.0 size=       1KiB time=00:00:00.96 bitrate=   5.2kbits/s speed=0.257x elapsed=0:00:03.75    \nframe=   33 fps=7.7 q=51.0 size=       1KiB time=00:00:01.10 bitrate=   4.6kbits/s speed=0.256x elapsed=0:00:04.29    \nframe=   38 fps=7.9 q=51.0 size=       1KiB time=00:00:01.26 bitrate=   4.0kbits/s speed=0.264x elapsed=0:00:04.80    \nframe=   43 fps=8.1 q=50.0 size=       1KiB time=00:00:01.43 bitrate=   3.5kbits/s speed=0.269x elapsed=0:00:05.33    \nframe=   47 fps=8.0 q=35.0 size=       1KiB time=00:00:01.56 bitrate=   3.2kbits/s speed=0.267x elapsed=0:00:05.86    \nframe=   52 fps=8.1 q=49.0 size=       1KiB time=00:00:01.73 bitrate=   2.9kbits/s speed=0.27x elapsed=0:00:06.41    \nframe=   56 fps=8.1 q=50.0 size=       1KiB time=00:00:01.86 bitrate=   2.7kbits/s speed=0.269x elapsed=0:00:06.95    \nframe=   61 fps=8.1 q=51.0 size=       1KiB time=00:00:02.03 bitrate=   2.5kbits/s speed=0.272x elapsed=0:00:07.48    \nframe=   66 fps=8.2 q=48.0 size=       1KiB time=00:00:02.20 bitrate=   2.3kbits/s speed=0.274x elapsed=0:00:08.04    \nframe=   70 fps=8.2 q=49.0 size=       1KiB time=00:00:02.33 bitrate=   2.2kbits/s speed=0.272x elapsed=0:00:08.57    \nframe=   74 fps=8.1 q=50.0 size=       1KiB time=00:00:02.46 bitrate=   2.1kbits/s speed=0.272x elapsed=0:00:09.08    \nframe=   80 fps=8.3 q=45.0 size=       1KiB time=00:00:02.66 bitrate=   1.9kbits/s speed=0.277x elapsed=0:00:09.61    \nframe=   84 fps=8.3 q=48.0 size=       1KiB time=00:00:02.80 bitrate=   1.8kbits/s speed=0.276x elapsed=0:00:10.16    \nframe=   88 fps=8.2 q=47.0 size=       1KiB time=00:00:02.93 bitrate=   1.7kbits/s speed=0.274x elapsed=0:00:10.71    \nframe=   92 fps=8.2 q=50.0 size=       1KiB time=00:00:03.06 bitrate=   1.7kbits/s speed=0.272x elapsed=0:00:11.25    \nframe=   96 fps=8.1 q=49.0 size=       1KiB time=00:00:03.20 bitrate=   1.6kbits/s speed=0.271x elapsed=0:00:11.80    \nframe=  101 fps=8.2 q=50.0 size=       1KiB time=00:00:03.36 bitrate=   1.5kbits/s speed=0.273x elapsed=0:00:12.33    \nframe=  104 fps=8.1 q=49.0 size=       1KiB time=00:00:03.46 bitrate=   1.5kbits/s speed=0.27x elapsed=0:00:12.85    \nframe=  108 fps=8.1 q=50.0 size=       1KiB time=00:00:03.60 bitrate=   1.4kbits/s speed=0.269x elapsed=0:00:13.36    \nframe=  112 fps=8.1 q=50.0 size=       1KiB time=00:00:03.73 bitrate=   1.4kbits/s speed=0.269x elapsed=0:00:13.88    \nframe=  117 fps=8.1 q=53.0 size=       1KiB time=00:00:03.90 bitrate=   1.3kbits/s speed=0.27x elapsed=0:00:14.43    \nframe=  121 fps=8.1 q=35.0 size=       1KiB time=00:00:04.03 bitrate=   1.3kbits/s speed=0.27x elapsed=0:00:14.96    \nframe=  126 fps=8.1 q=52.0 size=       1KiB time=00:00:04.20 bitrate=   1.2kbits/s speed=0.271x elapsed=0:00:15.48    \nframe=  126 fps=7.9 q=52.0 size=       1KiB time=00:00:04.20 bitrate=   1.2kbits/s speed=0.262x elapsed=0:00:16.01    \nframe=  126 fps=7.6 q=52.0 size=       1KiB time=00:00:04.20 bitrate=   1.2kbits/s speed=0.254x elapsed=0:00:16.55    \nframe=  126 fps=7.4 q=52.0 size=       1KiB time=00:00:04.20 bitrate=   1.2kbits/s speed=0.246x elapsed=0:00:17.07    \nframe=  126 fps=7.2 q=52.0 size=       1KiB time=00:00:04.20 bitrate=   1.2kbits/s speed=0.239x elapsed=0:00:17.58    \nframe=  126 fps=7.0 q=52.0 size=       1KiB time=00:00:04.20 bitrate=   1.2kbits/s speed=0.232x elapsed=0:00:18.10    \n[out#0/webm @ 000001d1f9911280] video:1729KiB audio:0KiB subtitle:0KiB other streams:0KiB global headers:0KiB muxing overhead: 0.099811%\nframe=  150 fps=8.2 q=51.0 Lsize=    1731KiB time=00:00:05.00 bitrate=2835.4kbits/s speed=0.272x elapsed=0:00:18.40    \n",
  "seconds": 18.628861904144287,
  "probe_out": {}
}